<svg version="1.1" id="Layer_1" xmlns="http://www.w3.org/2000/svg" xmlns:xlink="http://www.w3.org/1999/xlink" viewBox="0 0 512 512" xml:space="preserve" fill="#000000"><g id="SVGRepo_bgCarrier" stroke-width="0"></g><g id="SVGRepo_tracerCarrier" stroke-linecap="round" stroke-linejoin="round"></g><g id="SVGRepo_iconCarrier"> <g> <rect x="85.682" y="298.538" style="fill:#3B67AA;" width="340.637" height="31.347"></rect> <polygon style="fill:#3B67AA;" points="120.316,512 91.36,499.992 128.508,410.542 157.464,422.55 "></polygon> <polygon style="fill:#3B67AA;" points="391.637,512 420.592,499.992 383.444,410.542 354.488,422.55 "></polygon> </g> <polygon style="fill:#0094E2;" points="212.443,187.424 105.837,444.508 149.413,462.581 255.999,205.548 "></polygon> <polygon style="fill:#3EBBFB;" points="234.171,196.465 212.443,187.424 105.837,444.508 127.676,453.565 "></polygon> <polygon style="fill:#0094E2;" points="362.607,462.581 256,205.497 299.576,187.424 406.162,444.457 "></polygon> <polygon style="fill:#3EBBFB;" points="384.333,453.54 362.607,462.581 256,205.497 277.839,196.44 "></polygon> <rect x="232.417" style="fill:#0094E2;" width="47.177" height="144.206"></rect> <rect x="232.417" style="fill:#3EBBFB;" width="23.588" height="144.206"></rect> <circle style="fill:#E0E0E0;" cx="256" cy="144.206" r="72.788"></circle> <path style="fill:#F1F1F1;" d="M256,71.421c-40.199,0-72.788,32.588-72.788,72.788s32.588,72.788,72.788,72.788V71.421z"></path> <circle style="fill:#3B67AA;" cx="256" cy="144.206" r="25.762"></circle> <path style="fill:#0094E2;" d="M256,118.445c-14.228,0-25.762,11.535-25.762,25.762c0,14.228,11.535,25.762,25.762,25.762V118.445z"></path> </g></svg>